<svg width="245" height="245" fill="none" xmlns="http://www.w3.org/2000/svg"><circle cx="122.5" cy="122.5" r="121" stroke="url(#a)" stroke-width="3"/><path d="M76.152 154.176h-3.535v-2.647h3.535c.482 0 .873-.081 1.172-.244.3-.163.518-.387.654-.674.144-.293.215-.621.215-.986 0-.391-.071-.752-.215-1.084a1.75 1.75 0 0 0-.654-.801c-.3-.208-.69-.312-1.172-.312h-2.246V159h-3.428v-14.219h5.674c1.14 0 2.12.209 2.94.625.827.417 1.461.99 1.904 1.719.443.723.664 1.549.664 2.48 0 .918-.221 1.719-.664 2.403-.443.683-1.077 1.217-1.904 1.601-.82.378-1.8.567-2.94.567Zm12.569 2.168v-4.356c0-.299-.043-.556-.127-.771a1.016 1.016 0 0 0-.4-.498c-.183-.124-.427-.186-.733-.186-.248 0-.459.043-.635.127a.876.876 0 0 0-.4.381c-.091.169-.137.384-.137.645h-3.291c0-.489.108-.941.322-1.358.222-.423.534-.791.938-1.103.41-.313.898-.554 1.465-.723a6.502 6.502 0 0 1 1.914-.264c.84 0 1.588.14 2.246.42.664.28 1.188.7 1.572 1.26.384.553.576 1.25.576 2.09v4.326c0 .69.04 1.214.117 1.572.079.352.19.661.333.928V159H89.18a4.463 4.463 0 0 1-.352-1.191 9.834 9.834 0 0 1-.107-1.465Zm.4-3.799.02 1.758h-1.456c-.305 0-.566.042-.78.127a1.315 1.315 0 0 0-.508.351 1.385 1.385 0 0 0-.274.489 2.087 2.087 0 0 0-.078.576c0 .195.046.371.137.527.097.15.227.267.39.352.163.084.345.127.547.127.365 0 .674-.069.928-.206a1.67 1.67 0 0 0 .596-.517c.136-.202.205-.391.205-.567l.722 1.348c-.13.261-.28.524-.449.791a3.456 3.456 0 0 1-.615.742c-.241.222-.537.404-.889.547-.351.137-.778.205-1.28.205a4.04 4.04 0 0 1-1.796-.4 3.331 3.331 0 0 1-1.299-1.113 2.899 2.899 0 0 1-.488-1.661 3.5 3.5 0 0 1 .293-1.464c.202-.43.504-.795.908-1.094.404-.3.918-.527 1.543-.684.625-.156 1.36-.234 2.207-.234h1.416Zm7.969-1.856V159h-3.291v-10.566h3.086l.205 2.255Zm-.39 2.666-.772.02c0-.807.097-1.527.293-2.158.195-.638.472-1.179.83-1.621a3.53 3.53 0 0 1 1.28-1.006 3.885 3.885 0 0 1 1.669-.352c.488 0 .934.072 1.338.215.41.143.762.374 1.055.693.299.319.527.743.683 1.27.163.521.244 1.165.244 1.934V159h-3.31v-6.66c0-.423-.059-.746-.176-.967a.94.94 0 0 0-.508-.469 2.293 2.293 0 0 0-.81-.127c-.339 0-.625.065-.86.196-.234.13-.423.312-.566.547a2.587 2.587 0 0 0-.303.81 5.573 5.573 0 0 0-.088 1.025Zm14.521 3.223V144h3.31v15h-2.969l-.341-2.422Zm-6.485-2.734v-.205c0-.801.088-1.53.264-2.188.176-.664.436-1.234.781-1.709a3.524 3.524 0 0 1 1.289-1.113c.515-.261 1.107-.391 1.778-.391.599 0 1.123.14 1.572.42.449.274.833.658 1.152 1.153.319.494.58 1.074.782 1.738.201.657.354 1.367.458 2.129v.244a12.942 12.942 0 0 1-.458 2.031 6.885 6.885 0 0 1-.782 1.68 3.7 3.7 0 0 1-1.162 1.152c-.449.274-.976.41-1.582.41-.67 0-1.263-.133-1.777-.4a3.65 3.65 0 0 1-1.28-1.123 5.373 5.373 0 0 1-.771-1.699 8.141 8.141 0 0 1-.264-2.129Zm3.291-.205v.205c0 .397.026.765.078 1.103.053.339.14.638.264.899.13.254.3.452.508.595.215.144.478.215.791.215.423 0 .771-.101 1.045-.302.28-.202.485-.489.615-.86.137-.371.195-.807.176-1.308v-.772a4.637 4.637 0 0 0-.088-1.133 2.261 2.261 0 0 0-.342-.83 1.425 1.425 0 0 0-.576-.498 1.753 1.753 0 0 0-.81-.176c-.306 0-.567.072-.782.215a1.57 1.57 0 0 0-.508.606c-.13.254-.224.556-.283.908a6.85 6.85 0 0 0-.088 1.133Zm13.858 2.705v-4.356c0-.299-.043-.556-.127-.771a1.014 1.014 0 0 0-.401-.498c-.182-.124-.426-.186-.732-.186-.247 0-.459.043-.635.127a.874.874 0 0 0-.4.381c-.091.169-.137.384-.137.645h-3.291c0-.489.108-.941.322-1.358.222-.423.534-.791.938-1.103.41-.313.898-.554 1.465-.723a6.503 6.503 0 0 1 1.914-.264c.84 0 1.588.14 2.246.42.664.28 1.188.7 1.572 1.26.384.553.576 1.25.576 2.09v4.326c0 .69.039 1.214.117 1.572.079.352.189.661.333.928V159h-3.301a4.47 4.47 0 0 1-.352-1.191 9.915 9.915 0 0 1-.107-1.465Zm.4-3.799.02 1.758h-1.455c-.306 0-.567.042-.782.127a1.312 1.312 0 0 0-.781.84 2.087 2.087 0 0 0-.078.576c0 .195.046.371.137.527.097.15.228.267.39.352.163.084.345.127.547.127.365 0 .674-.069.928-.206.26-.143.459-.315.596-.517.136-.202.205-.391.205-.567l.722 1.348a8.91 8.91 0 0 1-.449.791 3.472 3.472 0 0 1-.615.742 2.914 2.914 0 0 1-.889.547c-.351.137-.778.205-1.279.205a4.04 4.04 0 0 1-1.797-.4 3.337 3.337 0 0 1-1.299-1.113 2.902 2.902 0 0 1-.488-1.661c0-.546.098-1.035.293-1.464.202-.43.504-.795.908-1.094.404-.3.918-.527 1.543-.684.625-.156 1.361-.234 2.207-.234h1.416Zm16.358-4.111h2.988v10.156c0 .976-.225 1.803-.674 2.48-.449.684-1.077 1.201-1.885 1.553-.801.358-1.738.537-2.812.537-.475 0-.961-.062-1.455-.185a5.567 5.567 0 0 1-1.387-.528 3.765 3.765 0 0 1-1.084-.869l1.377-1.933c.267.299.602.553 1.006.761.403.215.879.323 1.426.323.475 0 .872-.085 1.191-.254.326-.17.573-.417.742-.743.169-.319.254-.706.254-1.162v-7.636l.313-2.5Zm-7.022 5.41v-.205c0-.801.098-1.53.293-2.188.202-.664.488-1.234.859-1.709a3.88 3.88 0 0 1 1.368-1.113c.533-.261 1.136-.391 1.806-.391.723 0 1.315.14 1.778.42.468.274.843.658 1.123 1.153a6.39 6.39 0 0 1 .664 1.738c.162.657.299 1.367.41 2.129v.244a14.592 14.592 0 0 1-.459 2.031 6.829 6.829 0 0 1-.742 1.68c-.306.488-.69.872-1.153 1.152-.455.274-1.002.41-1.64.41-.664 0-1.263-.133-1.797-.4a4.02 4.02 0 0 1-1.358-1.123 5.359 5.359 0 0 1-.859-1.699 7.394 7.394 0 0 1-.293-2.129Zm3.291-.205v.205c0 .397.036.765.108 1.103.078.339.195.638.351.899.156.254.348.452.576.595.235.144.508.215.821.215.475 0 .859-.101 1.152-.302.293-.202.504-.489.635-.86.13-.371.185-.807.166-1.308v-.772a4.687 4.687 0 0 0-.088-1.133 2.261 2.261 0 0 0-.342-.83 1.39 1.39 0 0 0-.605-.498c-.248-.117-.547-.176-.899-.176-.306 0-.576.072-.81.215-.235.143-.43.345-.586.606a3.099 3.099 0 0 0-.362.908 5.14 5.14 0 0 0-.117 1.133Zm13.731 5.556c-.86 0-1.628-.133-2.305-.4a5.033 5.033 0 0 1-1.719-1.123 4.976 4.976 0 0 1-1.064-1.641 5.358 5.358 0 0 1-.362-1.963v-.371c0-.774.108-1.491.323-2.148a4.982 4.982 0 0 1 .957-1.738 4.274 4.274 0 0 1 1.591-1.153c.638-.28 1.381-.42 2.227-.42.749 0 1.419.121 2.012.362.592.24 1.093.586 1.504 1.035.416.449.732.993.947 1.631.221.638.332 1.354.332 2.148v1.338h-8.633v-2.061h5.42v-.253c.007-.352-.055-.652-.185-.899a1.28 1.28 0 0 0-.547-.566c-.241-.131-.534-.196-.879-.196-.358 0-.655.078-.889.235a1.588 1.588 0 0 0-.537.644 3.364 3.364 0 0 0-.264.928 7.616 7.616 0 0 0-.078 1.113v.371c0 .391.052.746.156 1.065.111.319.267.592.469.82.208.221.456.394.742.518.293.123.625.185.996.185.45 0 .892-.084 1.329-.254.436-.169.81-.449 1.123-.84l1.494 1.778c-.215.306-.521.602-.918.889-.391.286-.86.52-1.406.703a6.008 6.008 0 0 1-1.836.263Zm11.347-10.761v2.285h-6.367v-2.285h6.367Zm-5.029-2.627h3.291v9.746c0 .28.033.498.098.654.065.15.175.257.332.322.162.059.377.088.644.088.189 0 .345-.003.469-.01.124-.013.241-.029.351-.048v2.353c-.279.091-.572.16-.878.205a5.835 5.835 0 0 1-.977.078c-.703 0-1.305-.11-1.807-.332a2.35 2.35 0 0 1-1.132-1.045c-.261-.475-.391-1.093-.391-1.855v-10.156Zm11.875 10.224a.658.658 0 0 0-.186-.469c-.117-.136-.325-.26-.625-.371-.299-.117-.719-.234-1.259-.351a8.94 8.94 0 0 1-1.455-.44 4.97 4.97 0 0 1-1.182-.664 2.923 2.923 0 0 1-.801-.927 2.599 2.599 0 0 1-.283-1.231c0-.449.094-.872.283-1.269.195-.404.479-.759.85-1.065a4.144 4.144 0 0 1 1.377-.732c.54-.183 1.155-.274 1.845-.274.951 0 1.771.147 2.461.44.69.286 1.221.69 1.592 1.211.378.514.567 1.11.567 1.787h-3.291c0-.267-.046-.495-.137-.684a.873.873 0 0 0-.42-.43c-.195-.104-.456-.156-.781-.156-.228 0-.437.043-.625.127a1.123 1.123 0 0 0-.44.352.86.86 0 0 0-.166.527c0 .143.033.274.098.391.071.11.179.215.322.312.143.091.326.176.547.254.221.072.488.137.801.195.709.131 1.373.316 1.992.557.618.241 1.12.583 1.504 1.025.39.443.586 1.039.586 1.788 0 .468-.108.901-.322 1.298a3.247 3.247 0 0 1-.928 1.036c-.404.293-.889.52-1.455.683a6.927 6.927 0 0 1-1.914.244c-1.009 0-1.862-.179-2.559-.537-.697-.364-1.224-.82-1.582-1.367-.352-.553-.527-1.113-.527-1.68h3.066c.013.326.091.593.234.801.15.208.349.361.596.459.248.098.534.147.86.147.299 0 .546-.043.742-.127.202-.085.355-.199.459-.342a.885.885 0 0 0 .156-.518Zm-91.309 15.403v2.285H69.16v-2.285h6.367Zm-5.029-2.627h3.291v9.746c0 .28.033.498.098.654.065.15.175.257.332.322.163.059.377.088.644.088.19 0 .345-.003.469-.01.124-.013.24-.029.352-.048v2.353c-.28.091-.573.16-.88.205a5.829 5.829 0 0 1-.976.078c-.703 0-1.305-.11-1.806-.332a2.35 2.35 0 0 1-1.133-1.045c-.26-.475-.391-1.093-.391-1.855v-10.156Zm9.56-1.807v15h-3.29v-15h3.29Zm-.39 9.355-.772.02c0-.742.092-1.426.274-2.051a5.202 5.202 0 0 1 .781-1.631 3.62 3.62 0 0 1 1.22-1.074 3.303 3.303 0 0 1 1.583-.381c.52 0 .996.075 1.426.225.436.15.81.391 1.123.723.319.332.563.765.732 1.298.176.534.264 1.185.264 1.954V182h-3.31v-6.582c0-.43-.063-.762-.186-.996a.97.97 0 0 0-.508-.498 1.998 1.998 0 0 0-.81-.147c-.385 0-.697.065-.938.196a1.36 1.36 0 0 0-.557.547 2.416 2.416 0 0 0-.254.81 7.14 7.14 0 0 0-.068 1.025Zm13.574 5.84c-.86 0-1.627-.133-2.305-.4a5.028 5.028 0 0 1-1.718-1.123 4.98 4.98 0 0 1-1.065-1.641 5.36 5.36 0 0 1-.361-1.963v-.371c0-.774.107-1.491.322-2.148a5.01 5.01 0 0 1 .957-1.738 4.277 4.277 0 0 1 1.592-1.153c.638-.28 1.38-.42 2.227-.42.748 0 1.419.121 2.011.362.593.24 1.094.586 1.504 1.035.417.449.733.993.947 1.631.222.638.333 1.354.333 2.148v1.338h-8.633v-2.061h5.42v-.253c.006-.352-.056-.652-.186-.899a1.278 1.278 0 0 0-.547-.566c-.24-.131-.534-.196-.879-.196-.358 0-.654.078-.888.235a1.591 1.591 0 0 0-.537.644 3.378 3.378 0 0 0-.264.928 7.602 7.602 0 0 0-.078 1.113v.371c0 .391.052.746.156 1.065.11.319.267.592.469.82.208.221.456.394.742.518.293.123.625.185.996.185.45 0 .892-.084 1.328-.254a2.65 2.65 0 0 0 1.123-.84l1.494 1.778c-.215.306-.52.602-.918.889-.39.286-.859.52-1.406.703a6.007 6.007 0 0 1-1.836.263ZM104.033 167h3.291v12.402l-.342 2.598h-2.949v-15Zm9.776 9.6v.205c0 .8-.082 1.53-.245 2.187a5.027 5.027 0 0 1-.752 1.709 3.48 3.48 0 0 1-1.279 1.104c-.514.26-1.123.39-1.826.39-.638 0-1.185-.136-1.641-.41a3.523 3.523 0 0 1-1.142-1.152 6.927 6.927 0 0 1-.742-1.709 15.976 15.976 0 0 1-.45-2.09v-.244c.111-.736.261-1.426.45-2.07a6.688 6.688 0 0 1 .742-1.709 3.427 3.427 0 0 1 1.133-1.153c.455-.28.999-.42 1.631-.42.709 0 1.321.134 1.835.401.521.267.951.641 1.289 1.123.339.481.59 1.048.752 1.699.163.651.245 1.364.245 2.139Zm-3.291.205v-.205c0-.385-.023-.746-.069-1.084a3.227 3.227 0 0 0-.244-.899 1.462 1.462 0 0 0-.498-.615c-.215-.15-.495-.225-.84-.225-.351 0-.648.059-.888.176a1.417 1.417 0 0 0-.567.508 2.237 2.237 0 0 0-.293.801 5.413 5.413 0 0 0-.078 1.064v.772c-.013.54.036 1.002.147 1.386.11.384.302.677.576.879.273.202.647.303 1.123.303.351 0 .634-.068.849-.205.222-.137.388-.332.498-.586.111-.254.186-.557.225-.908.039-.352.059-.739.059-1.162Zm10.244 2.539v-4.356c0-.299-.043-.556-.127-.771a1.014 1.014 0 0 0-.401-.498c-.182-.124-.426-.186-.732-.186-.247 0-.459.043-.635.127a.874.874 0 0 0-.4.381c-.091.169-.137.384-.137.645h-3.291c0-.489.107-.941.322-1.358.222-.423.534-.791.938-1.103.41-.313.898-.554 1.465-.723a6.503 6.503 0 0 1 1.914-.264c.84 0 1.588.14 2.246.42.664.28 1.188.7 1.572 1.26.384.553.576 1.25.576 2.09v4.326c0 .69.039 1.214.117 1.572.079.352.189.661.332.928V182h-3.3a4.433 4.433 0 0 1-.352-1.191 9.915 9.915 0 0 1-.107-1.465Zm.4-3.799.02 1.758h-1.455c-.306 0-.567.042-.782.127a1.312 1.312 0 0 0-.781.84 2.087 2.087 0 0 0-.078.576c0 .195.046.371.137.527.097.15.228.267.39.352.163.084.345.127.547.127.365 0 .674-.069.928-.206.26-.143.459-.315.596-.517.136-.202.205-.391.205-.567l.722 1.348a8.91 8.91 0 0 1-.449.791 3.472 3.472 0 0 1-.615.742 2.914 2.914 0 0 1-.889.547c-.351.137-.778.205-1.279.205a4.04 4.04 0 0 1-1.797-.4 3.337 3.337 0 0 1-1.299-1.113 2.902 2.902 0 0 1-.488-1.661c0-.546.098-1.035.293-1.464.202-.43.504-.795.908-1.094.404-.3.918-.527 1.543-.684.625-.156 1.361-.234 2.207-.234h1.416Zm8.057-1.875V182h-3.291v-10.566h3.086l.205 2.236Zm-.401 2.685-.752.02c0-.742.088-1.426.264-2.051a4.939 4.939 0 0 1 .781-1.631c.345-.462.769-.82 1.27-1.074.508-.254 1.094-.381 1.758-.381.462 0 .882.072 1.259.215.378.137.704.355.977.654.273.293.482.678.625 1.153.15.469.225 1.032.225 1.689V182h-3.291v-6.631c0-.449-.052-.788-.157-1.015-.097-.228-.241-.381-.429-.459a1.8 1.8 0 0 0-.694-.118 1.52 1.52 0 0 0-.771.196 1.79 1.79 0 0 0-.586.547 2.626 2.626 0 0 0-.361.81 4.18 4.18 0 0 0-.118 1.025Zm6.036 0-.918.02c0-.742.081-1.426.244-2.051.169-.625.42-1.168.752-1.631.338-.462.758-.82 1.259-1.074.502-.254 1.084-.381 1.748-.381.482 0 .925.072 1.329.215.403.143.752.374 1.044.693.293.319.521.743.684 1.27.163.521.244 1.165.244 1.934V182h-3.301v-6.65c0-.437-.052-.765-.156-.987-.097-.228-.241-.381-.429-.459a1.65 1.65 0 0 0-.674-.127 1.6 1.6 0 0 0-.811.196c-.228.13-.42.312-.576.547-.15.227-.26.498-.332.81a4.569 4.569 0 0 0-.107 1.025Zm8.3-9.355h3.291v12.402l-.341 2.598h-2.95v-15Zm9.776 9.6v.205c0 .8-.082 1.53-.244 2.187a5.066 5.066 0 0 1-.752 1.709 3.49 3.49 0 0 1-1.28 1.104c-.514.26-1.123.39-1.826.39-.638 0-1.185-.136-1.64-.41a3.516 3.516 0 0 1-1.143-1.152 6.965 6.965 0 0 1-.742-1.709 15.817 15.817 0 0 1-.449-2.09v-.244c.11-.736.26-1.426.449-2.07a6.723 6.723 0 0 1 .742-1.709 3.436 3.436 0 0 1 1.133-1.153c.455-.28.999-.42 1.631-.42.709 0 1.321.134 1.836.401.52.267.95.641 1.289 1.123.338.481.589 1.048.752 1.699.162.651.244 1.364.244 2.139Zm-3.291.205v-.205c0-.385-.023-.746-.069-1.084a3.227 3.227 0 0 0-.244-.899 1.462 1.462 0 0 0-.498-.615c-.215-.15-.495-.225-.84-.225-.351 0-.648.059-.888.176a1.417 1.417 0 0 0-.567.508 2.237 2.237 0 0 0-.293.801 5.413 5.413 0 0 0-.078 1.064v.772c-.013.54.036 1.002.147 1.386.11.384.302.677.576.879.273.202.648.303 1.123.303.351 0 .635-.068.849-.205.222-.137.388-.332.498-.586.111-.254.186-.557.225-.908.039-.352.059-.739.059-1.162Zm4.345.019v-.205c0-.775.111-1.487.332-2.139a4.879 4.879 0 0 1 .977-1.709c.43-.481.96-.856 1.592-1.123.631-.273 1.36-.41 2.187-.41.834 0 1.566.137 2.198.41a4.38 4.38 0 0 1 1.601 1.123c.43.482.755 1.052.977 1.709.221.652.332 1.364.332 2.139v.205c0 .768-.111 1.481-.332 2.139a4.988 4.988 0 0 1-.977 1.709c-.43.482-.96.856-1.592 1.123-.631.267-1.36.4-2.187.4-.827 0-1.559-.133-2.197-.4a4.372 4.372 0 0 1-1.602-1.123 4.988 4.988 0 0 1-.977-1.709 6.679 6.679 0 0 1-.332-2.139Zm3.291-.205v.205c0 .397.03.768.088 1.114.059.345.157.647.293.908.137.254.323.452.557.595.234.144.527.215.879.215.345 0 .631-.071.859-.215a1.53 1.53 0 0 0 .557-.595c.137-.261.234-.563.293-.908.058-.346.088-.717.088-1.114v-.205c0-.384-.03-.745-.088-1.084a3.037 3.037 0 0 0-.293-.908 1.575 1.575 0 0 0-.557-.625c-.234-.15-.527-.225-.879-.225-.345 0-.634.075-.869.225-.228.15-.41.358-.547.625-.136.26-.234.563-.293.908-.058.339-.088.7-.088 1.084Zm7.959.205v-.205c0-.775.111-1.487.332-2.139a4.879 4.879 0 0 1 .977-1.709c.43-.481.96-.856 1.592-1.123.631-.273 1.36-.41 2.187-.41.834 0 1.566.137 2.198.41a4.38 4.38 0 0 1 1.601 1.123c.43.482.755 1.052.977 1.709.221.652.332 1.364.332 2.139v.205c0 .768-.111 1.481-.332 2.139a4.988 4.988 0 0 1-.977 1.709c-.43.482-.96.856-1.592 1.123-.631.267-1.36.4-2.187.4-.827 0-1.559-.133-2.197-.4a4.372 4.372 0 0 1-1.602-1.123 4.988 4.988 0 0 1-.977-1.709 6.679 6.679 0 0 1-.332-2.139Zm3.291-.205v.205c0 .397.03.768.088 1.114.059.345.157.647.293.908.137.254.323.452.557.595.234.144.527.215.879.215.345 0 .631-.071.859-.215a1.53 1.53 0 0 0 .557-.595c.137-.261.234-.563.293-.908.058-.346.088-.717.088-1.114v-.205c0-.384-.03-.745-.088-1.084a3.037 3.037 0 0 0-.293-.908 1.575 1.575 0 0 0-.557-.625c-.234-.15-.527-.225-.879-.225-.345 0-.634.075-.869.225-.228.15-.41.358-.547.625-.136.26-.234.563-.293.908-.058.339-.088.7-.088 1.084Z" fill="#4F4F4F"/><g clip-path="url(#b)"><path d="M90.257 115.232a1.106 1.106 0 1 1-2.213 0 1.106 1.106 0 0 1 2.213 0Zm38.773-18.13a8.772 8.772 0 0 1-5.308 1.771 2.753 2.753 0 0 1-1.66-.555 2.749 2.749 0 0 1-1.66.555 8.757 8.757 0 0 1-5.471-1.897 1.106 1.106 0 1 1 1.37-1.739 6.565 6.565 0 0 0 4.101 1.423.555.555 0 0 0 .554-.554v-1.8a4.436 4.436 0 0 1-3.321-4.287c0-1.22.993-2.213 2.214-2.213h4.427c1.22 0 2.213.993 2.213 2.213a4.435 4.435 0 0 1-3.32 4.287v1.8c0 .305.248.554.553.554a6.572 6.572 0 0 0 3.978-1.328 1.107 1.107 0 0 1 1.33 1.77Zm-6.968-4.87a2.216 2.216 0 0 0 2.214-2.213h-4.427c0 1.22.993 2.214 2.213 2.214Zm-3.819-8.418-1.636 2.834c-1.581 2.604-4.58 2.936-6.611 1.771-2.011-1.153-2.699-3.736-1.539-5.744l1.526-2.643a4.955 4.955 0 0 1 6.761-1.812 4.099 4.099 0 0 1 1.499 5.594Zm-3.553 1.728.678-1.175h-.86c-1.473 0-1.473-2.214 0-2.214h2.029c.162-.774-.171-1.611-.899-2.016-1.341-.746-2.976-.31-3.738 1.001l-1.526 2.643a1.999 1.999 0 0 0 .729 2.722c1.513.885 3.103-.036 3.587-.962Zm19.438 2.877c-2.18 1.24-5.111.737-6.61-1.77l-1.637-2.835a4.1 4.1 0 0 1 1.499-5.594 4.956 4.956 0 0 1 6.762 1.812l1.526 2.643c1.159 2.008.476 4.599-1.54 5.744Zm-.377-4.638-1.526-2.643a2.74 2.74 0 0 0-3.738-1.001 1.884 1.884 0 0 0-.9 2.016h2.029c1.474 0 1.474 2.214 0 2.214h-.86l.678 1.174c.554 1.001 2.092 1.805 3.587.962.958-.54 1.279-1.77.73-2.722Zm7.07-1.05c2.045 4.283 1.866 9.2-.541 13.369a14.747 14.747 0 0 1-1.623 2.281 43.77 43.77 0 0 1 .382 21.411 4.416 4.416 0 0 1-4.313 3.428h-2.431a24 24 0 0 1-10.456-2.395c-.838 1.086-2.435 2.395-4.819 2.395H96.23c-2.153 0-4.456-.88-6.093-2.721a1.115 1.115 0 0 1 .085-1.563c.478-.439 1.188-.333 1.563.086a5.978 5.978 0 0 0 4.447 1.985h2.26c-1.97-2.624-2.73-6.047-1.891-9.291 1.444-5.579 6.011-7.856 9.307-8.33a43.37 43.37 0 0 1-3.431-10.125c-6.37 3.673-10.673 9.863-11.894 17.191a1.108 1.108 0 0 1-1.273.911 1.102 1.102 0 0 1-.91-1.274c1.835-10.782 9.015-16.633 13.648-19.127a14.228 14.228 0 0 1 1.255-8.23 8.51 8.51 0 0 1-3.355-6.752c0-4.674 3.803-8.477 8.477-8.477 1.882 0 3.684.618 5.16 1.754 2.515-1.46 5.416-2.257 8.477-2.257 3.062 0 5.963.796 8.478 2.257a8.435 8.435 0 0 1 5.16-1.754c4.674 0 8.477 3.803 8.477 8.477 0 2.66-1.264 5.16-3.356 6.752Zm-36.435-1.968 3.081-5.336a16.971 16.971 0 0 1 4.156-4.83 6.232 6.232 0 0 0-3.198-.88 6.27 6.27 0 0 0-6.263 6.263 6.28 6.28 0 0 0 2.224 4.783Zm15.471 38.984a23.906 23.906 0 0 1-3.343-2.442 43.733 43.733 0 0 1-9.501-11.783c-3.899.142-7.317 2.889-8.263 6.724a8.893 8.893 0 0 0 2.74 8.761h15.531a3.799 3.799 0 0 0 2.836-1.26Zm12.438 1.26c.932 0 1.278-.958 1.012-1.558-2.72-6.132-6.66-11.588-11.647-16.149h-5.345c-3.663 0-7.055-1.334-9.652-3.695a41.556 41.556 0 0 0 11.307 16.033 21.773 21.773 0 0 0 14.325 5.369Zm4.529-20.856c-2.503 2.019-5.644 3.149-9.014 3.149h-2.949a51.09 51.09 0 0 1 3.195 3.511c.028-.156.057-.312.089-.467a1.106 1.106 0 1 1 2.169.438 21.99 21.99 0 0 0-.351 2.482 50.721 50.721 0 0 1 5.365 9.285c.333.747.375 1.573.139 2.331a2.217 2.217 0 0 0 1.417-1.593 41.534 41.534 0 0 0-.06-19.136Zm1.539-17.344-3.622-6.273c-2.646-4.584-7.386-7.32-12.679-7.32-5.292 0-10.032 2.736-12.679 7.32l-3.622 6.273c-2.202 3.816-2.202 8.371 0 12.186 2.203 3.816 6.148 6.093 10.554 6.093h11.495c4.405 0 8.35-2.277 10.553-6.093 2.203-3.815 2.203-8.37 0-12.186Zm3.6-6.827a6.27 6.27 0 0 0-6.263-6.264 6.233 6.233 0 0 0-3.198.88 16.97 16.97 0 0 1 4.156 4.83l3.081 5.337a6.287 6.287 0 0 0 2.224-4.783Z" fill="url(#c)"/><g clip-path="url(#d)"><path d="M148.656 102.635a.267.267 0 0 0 .347-.254s.129-2.31.189-2.948c.05-.536.395-3.257.395-3.257a.267.267 0 0 0-.296-.311s-.689.051-1.027.02c-.34-.032-1.012-.212-1.012-.212a.268.268 0 0 0-.349.252s-.164 2.704-.213 3.23c-.061.648-.367 2.975-.367 2.975-.025.185.108.324.294.309 0 0 .637-.052.958-.024.358.031 1.081.22 1.081.22Z" fill="url(#e)"/><path d="M147.925 110.424a.268.268 0 0 0 .348-.254s.128-2.31.188-2.948c.05-.536.395-3.256.395-3.256a.267.267 0 0 0-.296-.312s-.689.051-1.027.02c-.34-.032-1.012-.212-1.012-.212a.268.268 0 0 0-.349.252s-.164 2.704-.213 3.23c-.061.649-.367 2.975-.367 2.975-.025.185.108.324.294.309 0 0 .637-.052.958-.024.358.031 1.081.22 1.081.22Z" fill="url(#f)"/><path d="M147.194 118.215a.268.268 0 0 0 .348-.254s.128-2.31.188-2.947c.05-.537.395-3.257.395-3.257a.267.267 0 0 0-.296-.312s-.689.051-1.027.02c-.34-.032-1.011-.212-1.011-.212a.267.267 0 0 0-.349.252s-.164 2.704-.214 3.23c-.061.649-.367 2.975-.367 2.975-.025.185.108.324.294.309 0 0 .637-.052.958-.024.358.031 1.081.22 1.081.22Z" fill="url(#g)"/><path d="M152.145 106.006c-1.095.993-2.472 1.371-2.619 1.243-.148-.13.254-1.36 1.349-2.353 1.096-.992 2.471-1.372 2.62-1.242.159.139-.254 1.359-1.35 2.352Z" fill="url(#h)"/><path d="M152.397 108.765c-1.17.064-2.161-.493-2.173-.675-.013-.185.895-.842 2.065-.905 1.171-.064 2.161.49 2.174.675.013.199-.895.842-2.066.905Z" fill="url(#i)"/><path d="M150.089 110.381c-.519-.825-.534-1.696-.412-1.756.123-.062.948.406 1.467 1.231.52.825.536 1.695.413 1.757-.133.065-.949-.406-1.468-1.232Z" fill="url(#j)"/><path d="M139.491 109.442a.267.267 0 0 0 .192-.385s-.845-1.87-1.062-2.405c-.183-.45-1.028-2.737-1.028-2.737a.267.267 0 0 0-.406-.14s-.501.31-.785.426c-.285.116-.864.244-.864.244-.183.041-.27.214-.194.384 0 0 .981 2.201 1.16 2.642.221.543.933 2.499.933 2.499a.264.264 0 0 0 .404.139s.459-.289.727-.4c.299-.124.923-.267.923-.267Z" fill="url(#k)"/><path d="M142.148 115.976a.268.268 0 0 0 .191-.386s-.844-1.87-1.062-2.405c-.183-.45-1.027-2.737-1.027-2.737a.268.268 0 0 0-.407-.14s-.501.31-.785.426c-.284.116-.863.245-.863.245a.267.267 0 0 0-.194.384s.981 2.2 1.16 2.641c.221.544.933 2.499.933 2.499.064.176.245.238.404.139 0 0 .459-.289.727-.4.299-.124.923-.266.923-.266Z" fill="url(#l)"/><path d="M144.805 122.507a.268.268 0 0 0 .192-.385s-.845-1.871-1.062-2.405a219.334 219.334 0 0 1-1.028-2.738.267.267 0 0 0-.406-.14s-.501.311-.785.426c-.285.116-.864.245-.864.245-.183.041-.27.213-.194.384 0 0 .981 2.2 1.16 2.641.222.544.933 2.5.933 2.5.064.175.246.238.404.138 0 0 .459-.289.727-.4.299-.124.923-.266.923-.266Z" fill="url(#m)"/><path d="M135.239 112.65c.92-.565 1.989-.618 2.085-.497.099.123-.326.986-1.245 1.551-.92.566-1.987.621-2.085.497-.106-.132.325-.985 1.245-1.551Z" fill="url(#n)"/><path d="M136.005 110.108c.77.51 1.056 1.319.954 1.437-.103.12-1.065.1-1.835-.41s-1.057-1.317-.954-1.437c.111-.129 1.065-.1 1.835.41Z" fill="url(#o)"/></g></g><defs><linearGradient id="a" x1="-45.746" y1="0" x2="290.544" y2="102.084" gradientUnits="userSpaceOnUse"><stop stop-color="#4BD8B5"/><stop offset="1" stop-color="#49D6DF"/></linearGradient><linearGradient id="c" x1="77.563" y1="67" x2="154.632" y2="90.358" gradientUnits="userSpaceOnUse"><stop stop-color="#4BD8B5"/><stop offset="1" stop-color="#49D6DF"/></linearGradient><linearGradient id="e" x1="145.709" y1="95.662" x2="150.514" y2="96.345" gradientUnits="userSpaceOnUse"><stop stop-color="#4BD8B5"/><stop offset="1" stop-color="#49D6DF"/></linearGradient><linearGradient id="f" x1="144.978" y1="103.451" x2="149.784" y2="104.134" gradientUnits="userSpaceOnUse"><stop stop-color="#4BD8B5"/><stop offset="1" stop-color="#49D6DF"/></linearGradient><linearGradient id="g" x1="144.247" y1="111.242" x2="149.053" y2="111.925" gradientUnits="userSpaceOnUse"><stop stop-color="#4BD8B5"/><stop offset="1" stop-color="#49D6DF"/></linearGradient><linearGradient id="h" x1="148.744" y1="103.629" x2="154.174" y2="105.452" gradientUnits="userSpaceOnUse"><stop stop-color="#4BD8B5"/><stop offset="1" stop-color="#49D6DF"/></linearGradient><linearGradient id="i" x1="149.432" y1="107.18" x2="153.273" y2="110.287" gradientUnits="userSpaceOnUse"><stop stop-color="#4BD8B5"/><stop offset="1" stop-color="#49D6DF"/></linearGradient><linearGradient id="j" x1="149.239" y1="108.619" x2="152.128" y2="109.206" gradientUnits="userSpaceOnUse"><stop stop-color="#4BD8B5"/><stop offset="1" stop-color="#49D6DF"/></linearGradient><linearGradient id="k" x1="134.496" y1="103.729" x2="140.812" y2="105.039" gradientUnits="userSpaceOnUse"><stop stop-color="#4BD8B5"/><stop offset="1" stop-color="#49D6DF"/></linearGradient><linearGradient id="l" x1="137.153" y1="110.262" x2="143.468" y2="111.572" gradientUnits="userSpaceOnUse"><stop stop-color="#4BD8B5"/><stop offset="1" stop-color="#49D6DF"/></linearGradient><linearGradient id="m" x1="139.81" y1="116.793" x2="146.125" y2="118.103" gradientUnits="userSpaceOnUse"><stop stop-color="#4BD8B5"/><stop offset="1" stop-color="#49D6DF"/></linearGradient><linearGradient id="n" x1="133.351" y1="112.1" x2="137.467" y2="114.047" gradientUnits="userSpaceOnUse"><stop stop-color="#4BD8B5"/><stop offset="1" stop-color="#49D6DF"/></linearGradient><linearGradient id="o" x1="133.622" y1="109.633" x2="137.187" y2="111.184" gradientUnits="userSpaceOnUse"><stop stop-color="#4BD8B5"/><stop offset="1" stop-color="#49D6DF"/></linearGradient><clipPath id="b"><path fill="#fff" transform="translate(88 67)" d="M0 0h70v56.221H0z"/></clipPath><clipPath id="d"><path fill="#fff" transform="translate(130.441 95.662)" d="M0 0h27.559v27.559H0z"/></clipPath></defs></svg>