<svg width="245" height="245" fill="none" xmlns="http://www.w3.org/2000/svg"><circle cx="122.5" cy="122.5" r="121" stroke="url(#a)" stroke-width="3"/><path d="m59.006 144.781 2.617 6.172 2.627-6.172h3.691l-4.57 9.112V159h-3.486v-5.107l-4.58-9.112h3.7Zm8.77 9.043v-.205c0-.775.11-1.487.331-2.139a4.873 4.873 0 0 1 .977-1.709c.43-.481.96-.856 1.592-1.123.631-.273 1.36-.41 2.187-.41.834 0 1.566.137 2.198.41a4.38 4.38 0 0 1 1.601 1.123c.43.482.755 1.052.977 1.709.221.652.332 1.364.332 2.139v.205a6.67 6.67 0 0 1-.332 2.139 4.983 4.983 0 0 1-.977 1.709c-.43.482-.96.856-1.592 1.123-.631.267-1.36.4-2.187.4-.827 0-1.56-.133-2.197-.4a4.368 4.368 0 0 1-1.602-1.123 4.983 4.983 0 0 1-.977-1.709 6.67 6.67 0 0 1-.332-2.139Zm3.29-.205v.205c0 .397.03.768.088 1.114.059.345.157.647.293.908.137.254.322.452.557.595.234.144.527.215.879.215.345 0 .631-.071.86-.215a1.53 1.53 0 0 0 .556-.595c.136-.261.234-.563.293-.908.058-.346.088-.717.088-1.114v-.205c0-.384-.03-.745-.088-1.084a3.034 3.034 0 0 0-.293-.908 1.576 1.576 0 0 0-.557-.625c-.234-.15-.527-.225-.879-.225-.345 0-.635.075-.869.225-.228.15-.41.358-.547.625-.136.26-.234.563-.293.908-.058.339-.088.7-.088 1.084Zm14.541 2.813v-7.998h3.301V159h-3.086l-.215-2.568Zm.313-2.149.86-.019a7.3 7.3 0 0 1-.255 1.972c-.169.599-.42 1.12-.752 1.563-.325.443-.729.788-1.21 1.035-.476.241-1.026.361-1.65.361-.522 0-1-.071-1.436-.215-.43-.149-.801-.38-1.114-.693-.312-.319-.556-.726-.732-1.221-.17-.501-.254-1.1-.254-1.796v-6.836h3.291v6.855c0 .234.03.436.088.606.058.169.143.312.254.429.11.111.247.196.41.254.17.052.361.078.576.078.495 0 .882-.104 1.162-.312.28-.209.475-.492.586-.85.117-.358.176-.762.176-1.211Zm13.105-3.818v12.597h-3.29v-14.628H98.8l.224 2.031Zm6.485 3.125v.205c0 .768-.088 1.481-.264 2.139a5.341 5.341 0 0 1-.781 1.718 3.675 3.675 0 0 1-1.289 1.143c-.508.267-1.097.4-1.768.4-.631 0-1.175-.14-1.63-.42a3.484 3.484 0 0 1-1.143-1.162 6.982 6.982 0 0 1-.742-1.699 15.585 15.585 0 0 1-.45-2.021v-.264c.111-.762.26-1.468.45-2.119a6.698 6.698 0 0 1 .742-1.719 3.466 3.466 0 0 1 1.133-1.143c.455-.273.999-.41 1.63-.41.671 0 1.26.127 1.768.381.514.254.944.619 1.289 1.094.352.469.615 1.032.791 1.689a8.46 8.46 0 0 1 .264 2.188Zm-3.291.205v-.205c0-.41-.03-.785-.088-1.123a3.125 3.125 0 0 0-.283-.899 1.435 1.435 0 0 0-.498-.586c-.209-.136-.466-.205-.772-.205-.351 0-.648.056-.889.166a1.288 1.288 0 0 0-.566.489 2.235 2.235 0 0 0-.293.81 6.453 6.453 0 0 0-.068 1.123v.801c-.013.495.035.931.146 1.309.11.371.303.66.576.869.274.208.645.312 1.114.312.312 0 .573-.071.781-.215.208-.149.374-.354.498-.615.124-.267.212-.573.264-.918.052-.345.078-.716.078-1.113Zm10.244 2.549v-4.356c0-.299-.042-.556-.127-.771a1.018 1.018 0 0 0-.4-.498c-.183-.124-.427-.186-.733-.186-.247 0-.459.043-.635.127a.879.879 0 0 0-.4.381c-.091.169-.137.384-.137.645h-3.291c0-.489.108-.941.322-1.358.222-.423.534-.791.938-1.103.41-.313.898-.554 1.465-.723a6.503 6.503 0 0 1 1.914-.264c.84 0 1.588.14 2.246.42.664.28 1.188.7 1.572 1.26.384.553.576 1.25.576 2.09v4.326c0 .69.039 1.214.118 1.572.078.352.188.661.332.928V159h-3.301a4.47 4.47 0 0 1-.352-1.191 9.915 9.915 0 0 1-.107-1.465Zm.4-3.799.02 1.758h-1.455c-.306 0-.567.042-.782.127a1.312 1.312 0 0 0-.781.84 2.087 2.087 0 0 0-.078.576c0 .195.046.371.137.527.097.15.228.267.39.352.163.084.346.127.547.127.365 0 .674-.069.928-.206.26-.143.459-.315.596-.517.136-.202.205-.391.205-.567l.722 1.348c-.13.261-.279.524-.449.791a3.443 3.443 0 0 1-.615.742 2.914 2.914 0 0 1-.889.547c-.351.137-.778.205-1.279.205a4.04 4.04 0 0 1-1.797-.4 3.337 3.337 0 0 1-1.299-1.113 2.902 2.902 0 0 1-.488-1.661c0-.546.098-1.035.293-1.464.202-.43.505-.795.908-1.094.404-.3.918-.527 1.543-.684.625-.156 1.361-.234 2.207-.234h1.416Zm7.823 5.215 2.734-9.326h3.535l-4.248 12.138a7.545 7.545 0 0 1-.361.86c-.15.312-.355.608-.616.888-.26.28-.595.508-1.005.684-.404.176-.905.264-1.504.264-.319 0-.554-.017-.703-.049a13.088 13.088 0 0 1-.664-.147v-2.353h.429c.352 0 .632-.036.84-.108.215-.071.378-.175.488-.312a1.46 1.46 0 0 0 .274-.498l.801-2.041Zm-.694-9.326 2.08 7.392.362 3.486h-2.207l-3.76-10.878h3.525Zm16.016 7.421 1.953-7.421h2.06l-.732 3.72-1.934 6.846h-1.65l.303-3.145Zm-.772-7.421 1.211 7.363.137 3.203h-2.002l-2.5-10.566h3.154Zm6.524 7.207 1.22-7.207h3.155L143.654 159h-2.002l.108-3.359Zm-1.504-7.207 1.973 7.402.302 3.164h-1.67l-1.894-6.826-.703-3.74h1.992Zm10.547 0V159h-3.301v-10.566h3.301Zm-3.496-2.725c0-.469.169-.853.507-1.152.339-.3.778-.45 1.319-.45.54 0 .98.15 1.318.45.339.299.508.683.508 1.152 0 .469-.169.853-.508 1.152-.338.3-.778.45-1.318.45-.541 0-.98-.15-1.319-.45a1.468 1.468 0 0 1-.507-1.152Zm11.093 2.725v2.285h-6.367v-2.285h6.367Zm-5.029-2.627h3.291v9.746c0 .28.033.498.098.654.065.15.176.257.332.322.163.059.377.088.644.088.189 0 .345-.003.469-.01a5.46 5.46 0 0 0 .352-.048v2.353c-.28.091-.573.16-.879.205a5.835 5.835 0 0 1-.977.078c-.703 0-1.305-.11-1.806-.332a2.349 2.349 0 0 1-1.133-1.045c-.261-.475-.391-1.093-.391-1.855v-10.156Zm9.561-1.807v15h-3.291v-15h3.291Zm-.391 9.355-.771.02c0-.742.091-1.426.273-2.051a5.208 5.208 0 0 1 .781-1.631c.339-.462.746-.82 1.221-1.074a3.303 3.303 0 0 1 1.582-.381c.521 0 .996.075 1.426.225.436.15.81.391 1.123.723.319.332.563.765.732 1.298.176.534.264 1.185.264 1.954V159h-3.311v-6.582c0-.43-.062-.762-.185-.996a.97.97 0 0 0-.508-.498 2 2 0 0 0-.811-.147c-.384 0-.696.065-.937.196a1.36 1.36 0 0 0-.557.547 2.44 2.44 0 0 0-.254.81 7.214 7.214 0 0 0-.068 1.025Zm18.926 2.989v-4.356c0-.299-.043-.556-.127-.771a1.014 1.014 0 0 0-.401-.498c-.182-.124-.426-.186-.732-.186-.247 0-.459.043-.635.127a.874.874 0 0 0-.4.381c-.091.169-.137.384-.137.645h-3.291c0-.489.108-.941.322-1.358.222-.423.534-.791.938-1.103.41-.313.898-.554 1.465-.723a6.503 6.503 0 0 1 1.914-.264c.84 0 1.588.14 2.246.42.664.28 1.188.7 1.572 1.26.384.553.576 1.25.576 2.09v4.326c0 .69.039 1.214.118 1.572.078.352.188.661.332.928V159h-3.301a4.47 4.47 0 0 1-.352-1.191 9.915 9.915 0 0 1-.107-1.465Zm.4-3.799.02 1.758h-1.455c-.306 0-.567.042-.782.127a1.312 1.312 0 0 0-.781.84 2.087 2.087 0 0 0-.078.576c0 .195.046.371.137.527.097.15.228.267.39.352.163.084.345.127.547.127.365 0 .674-.069.928-.206.26-.143.459-.315.596-.517.136-.202.205-.391.205-.567l.722 1.348a8.91 8.91 0 0 1-.449.791 3.472 3.472 0 0 1-.615.742 2.914 2.914 0 0 1-.889.547c-.351.137-.778.205-1.279.205a4.04 4.04 0 0 1-1.797-.4 3.337 3.337 0 0 1-1.299-1.113 2.902 2.902 0 0 1-.488-1.661c0-.546.098-1.035.293-1.464.202-.43.505-.795.908-1.094.404-.3.918-.527 1.543-.684.625-.156 1.361-.234 2.207-.234h1.416ZM84.426 178.65l2.959-10.869h3.838L86.428 182h-2.48l.478-3.35Zm-2.686-10.869 2.96 10.869.497 3.35h-2.51l-4.765-14.219h3.818Zm14.17 0V182h-3.418v-14.219h3.418Zm9.736 10.44c0-.222-.032-.42-.097-.596a1.253 1.253 0 0 0-.361-.508c-.176-.156-.43-.312-.762-.469a9.884 9.884 0 0 0-1.289-.507 19.638 19.638 0 0 1-1.807-.703 8.078 8.078 0 0 1-1.553-.928 4.201 4.201 0 0 1-1.084-1.25c-.267-.482-.4-1.042-.4-1.68 0-.612.137-1.162.41-1.65a3.759 3.759 0 0 1 1.143-1.26 5.454 5.454 0 0 1 1.738-.801 7.934 7.934 0 0 1 2.178-.283c1.041 0 1.959.182 2.754.547.8.358 1.425.869 1.875 1.533.455.658.683 1.436.683 2.334h-3.408c0-.358-.075-.674-.225-.947a1.52 1.52 0 0 0-.654-.645c-.293-.156-.661-.234-1.103-.234-.43 0-.791.065-1.084.195-.293.13-.515.306-.664.527a1.22 1.22 0 0 0-.225.713c0 .215.059.411.176.586.123.17.296.329.517.479.228.15.502.293.821.43.325.136.69.27 1.093.4.756.241 1.426.511 2.012.81a6.171 6.171 0 0 1 1.494 1.006c.41.371.72.795.928 1.27.215.475.322 1.012.322 1.611 0 .638-.123 1.205-.371 1.699a3.521 3.521 0 0 1-1.064 1.26c-.463.339-1.016.596-1.66.772a8.239 8.239 0 0 1-2.159.263 8.655 8.655 0 0 1-2.158-.273 6.367 6.367 0 0 1-1.914-.86 4.441 4.441 0 0 1-1.377-1.494c-.338-.612-.508-1.338-.508-2.177h3.438c0 .416.055.768.166 1.054.11.287.273.518.488.694.215.169.479.293.791.371.313.071.671.107 1.074.107.437 0 .788-.062 1.055-.185.267-.131.462-.3.586-.508a1.38 1.38 0 0 0 .185-.703Zm11.221-7.451L113.4 182h-3.681l5.224-14.219h2.334l-.41 2.989Zm2.871 11.23-3.476-11.23-.45-2.989h2.364L123.43 182h-3.692Zm-.136-5.303v2.647h-7.295v-2.647h7.295Zm14.16 2.959c.306 0 .566-.055.781-.166.221-.117.387-.28.498-.488.117-.215.173-.472.166-.772h3.096c.006.795-.189 1.491-.586 2.09a3.964 3.964 0 0 1-1.602 1.387c-.67.326-1.429.488-2.275.488-.827 0-1.55-.133-2.168-.4a4.344 4.344 0 0 1-1.553-1.133 5 5 0 0 1-.928-1.709 7.149 7.149 0 0 1-.302-2.119v-.225c0-.761.101-1.468.302-2.119a4.892 4.892 0 0 1 .928-1.709 4.216 4.216 0 0 1 1.543-1.133c.619-.273 1.338-.41 2.158-.41.879 0 1.654.166 2.325.498a3.755 3.755 0 0 1 1.591 1.446c.384.631.573 1.396.567 2.295h-3.096a2.128 2.128 0 0 0-.146-.86 1.314 1.314 0 0 0-.489-.605c-.215-.157-.491-.235-.83-.235-.338 0-.612.075-.82.225-.208.15-.368.358-.479.625a3.5 3.5 0 0 0-.214.898c-.033.339-.049.7-.049 1.084v.225c0 .391.016.758.049 1.104.039.338.113.638.224.898.111.254.27.456.479.605.208.144.485.215.83.215Zm11.435-.312v-4.356c0-.299-.042-.556-.127-.771a1.013 1.013 0 0 0-.4-.498c-.182-.124-.427-.186-.732-.186-.248 0-.459.043-.635.127a.876.876 0 0 0-.401.381c-.091.169-.136.384-.136.645h-3.291c0-.489.107-.941.322-1.358.221-.423.534-.791.937-1.103a4.531 4.531 0 0 1 1.465-.723 6.503 6.503 0 0 1 1.914-.264c.84 0 1.589.14 2.246.42.664.28 1.189.7 1.573 1.26.384.553.576 1.25.576 2.09v4.326c0 .69.039 1.214.117 1.572.078.352.189.661.332.928V182h-3.301a4.47 4.47 0 0 1-.351-1.191 9.78 9.78 0 0 1-.108-1.465Zm.401-3.799.019 1.758h-1.455c-.306 0-.566.042-.781.127a1.316 1.316 0 0 0-.508.351 1.37 1.37 0 0 0-.273.489 2.087 2.087 0 0 0-.079.576c0 .195.046.371.137.527.098.15.228.267.391.352.163.084.345.127.547.127.364 0 .674-.069.927-.206.261-.143.459-.315.596-.517.137-.202.205-.391.205-.567l.723 1.348a8.91 8.91 0 0 1-.449.791 3.448 3.448 0 0 1-.616.742c-.24.222-.537.404-.888.547-.352.137-.778.205-1.28.205-.651 0-1.25-.133-1.796-.4a3.323 3.323 0 0 1-1.299-1.113 2.895 2.895 0 0 1-.489-1.661c0-.546.098-1.035.293-1.464.202-.43.505-.795.909-1.094.403-.3.918-.527 1.543-.684.625-.156 1.36-.234 2.207-.234h1.416Zm8.056-1.494V182h-3.291v-10.566h3.076l.215 2.617Zm3.125-2.696-.058 3.057a64.054 64.054 0 0 0-.528-.049 6.725 6.725 0 0 0-.556-.029c-.384 0-.716.046-.996.137a1.68 1.68 0 0 0-.684.39 1.54 1.54 0 0 0-.391.645 2.96 2.96 0 0 0-.107.908l-.596-.391c0-.709.069-1.354.205-1.933.144-.586.345-1.091.606-1.514.26-.43.576-.758.947-.986a2.287 2.287 0 0 1 1.25-.352c.163 0 .322.01.479.03.162.019.306.048.429.087Zm7.012 8.223V167h3.311v15h-2.969l-.342-2.422Zm-6.484-2.734v-.205c0-.801.088-1.53.263-2.188.176-.664.437-1.234.782-1.709a3.516 3.516 0 0 1 1.289-1.113c.514-.261 1.106-.391 1.777-.391.599 0 1.123.14 1.572.42.449.274.834.658 1.153 1.153.319.494.579 1.074.781 1.738.202.657.355 1.367.459 2.129v.244a12.83 12.83 0 0 1-.459 2.031 6.883 6.883 0 0 1-.781 1.68 3.702 3.702 0 0 1-1.163 1.152c-.449.274-.976.41-1.582.41-.67 0-1.263-.133-1.777-.4a3.639 3.639 0 0 1-1.279-1.123 5.352 5.352 0 0 1-.772-1.699 8.185 8.185 0 0 1-.263-2.129Zm3.291-.205v.205c0 .397.026.765.078 1.103.052.339.14.638.263.899.131.254.3.452.508.595.215.144.479.215.791.215.423 0 .772-.101 1.045-.302.28-.202.485-.489.615-.86.137-.371.196-.807.176-1.308v-.772a4.637 4.637 0 0 0-.088-1.133 2.244 2.244 0 0 0-.341-.83 1.421 1.421 0 0 0-.577-.498 1.753 1.753 0 0 0-.81-.176c-.306 0-.567.072-.781.215a1.552 1.552 0 0 0-.508.606c-.13.254-.225.556-.283.908a6.743 6.743 0 0 0-.088 1.133Z" fill="#4F4F4F"/><path d="M151.748 86.028h-6.238l-1.751-13.21a3.275 3.275 0 0 0-3.656-2.791l-47.28 6.265a3.252 3.252 0 0 0-2.155 1.255 3.22 3.22 0 0 0-.638 2.403l3.99 30.086a3.252 3.252 0 0 0 3.645 2.802l3.132-.413v7.209a3.252 3.252 0 0 0 3.252 3.252h47.699a3.252 3.252 0 0 0 3.252-3.252V89.28a3.252 3.252 0 0 0-3.252-3.252Zm-8.424 0h-8.466l8.319-1.102.147 1.102Zm-51.147-6.37c-.038-.284.039-.57.214-.795.175-.232.435-.385.722-.423l47.271-6.264a1.1 1.1 0 0 1 1.226.932l.428 3.229-49.433 6.555-.428-3.235Zm8.62 30.58-3.41.45a1.084 1.084 0 0 1-1.218-.931v-.001l-2.418-18.275 7.046-.931v19.688Zm.143-21.893-7.48.986-.569-4.288 49.433-6.557.325 2.485.241 1.805-24.531 3.252h-14.31a3.253 3.253 0 0 0-3.109 2.317Zm51.892 31.289c0 .599-.486 1.084-1.084 1.084h-47.699a1.084 1.084 0 0 1-1.084-1.084V89.313c0-.01.006-.022.006-.033 0-.598.485-1.084 1.084-1.084h47.693c.598 0 1.084.486 1.084 1.084v30.354Z" fill="url(#b)"/><path d="M137.596 102.313a5.451 5.451 0 0 0 1.143-1.142 5.412 5.412 0 1 0 4.336-8.64 5.399 5.399 0 0 0-4.336 2.202 5.42 5.42 0 1 0-1.143 7.58Zm5.479-7.613a3.252 3.252 0 1 1 0 6.504 3.252 3.252 0 0 1 0-6.504Zm-8.672 0a3.252 3.252 0 1 1 0 6.504 3.252 3.252 0 0 1 0-6.504Z" fill="url(#c)"/><path d="M109.47 93.617h-2.168v2.168h2.168v-2.168Z" fill="url(#d)"/><path d="M124.646 93.617h-13.008v2.168h13.008v-2.168Z" fill="url(#e)"/><path d="M124.647 97.953h-17.345v2.168h17.345v-2.168Z" fill="url(#f)"/><path d="M147.412 107.709h-39.026c-.599 0-1.084.485-1.084 1.084v6.504c0 .599.485 1.084 1.084 1.084h39.026c.599 0 1.084-.485 1.084-1.084v-6.504c0-.599-.485-1.084-1.084-1.084Zm-1.084 6.504H109.47v-4.336h36.858v4.336Z" fill="url(#g)"/><defs><linearGradient id="a" x1="-45.746" y1="0" x2="290.544" y2="102.084" gradientUnits="userSpaceOnUse"><stop stop-color="#4BD8B5"/><stop offset="1" stop-color="#49D6DF"/></linearGradient><linearGradient id="b" x1="77.863" y1="70" x2="163.398" y2="101.912" gradientUnits="userSpaceOnUse"><stop stop-color="#4BD8B5"/><stop offset="1" stop-color="#49D6DF"/></linearGradient><linearGradient id="c" x1="125.309" y1="92.531" x2="147.852" y2="104.864" gradientUnits="userSpaceOnUse"><stop stop-color="#4BD8B5"/><stop offset="1" stop-color="#49D6DF"/></linearGradient><linearGradient id="d" x1="106.897" y1="93.617" x2="109.873" y2="94.521" gradientUnits="userSpaceOnUse"><stop stop-color="#4BD8B5"/><stop offset="1" stop-color="#49D6DF"/></linearGradient><linearGradient id="e" x1="109.209" y1="93.617" x2="113.726" y2="101.844" gradientUnits="userSpaceOnUse"><stop stop-color="#4BD8B5"/><stop offset="1" stop-color="#49D6DF"/></linearGradient><linearGradient id="f" x1="104.063" y1="97.953" x2="107.833" y2="107.108" gradientUnits="userSpaceOnUse"><stop stop-color="#4BD8B5"/><stop offset="1" stop-color="#49D6DF"/></linearGradient><linearGradient id="g" x1="99.61" y1="107.709" x2="119.666" y2="136.628" gradientUnits="userSpaceOnUse"><stop stop-color="#4BD8B5"/><stop offset="1" stop-color="#49D6DF"/></linearGradient></defs></svg>