<svg width="245" height="245" fill="none" xmlns="http://www.w3.org/2000/svg"><circle cx="122.5" cy="122.5" r="121" stroke="url(#a)" stroke-width="3"/><path d="M62.795 154.176H59.26v-2.647h3.535c.482 0 .872-.081 1.172-.244.3-.163.517-.387.654-.674.143-.293.215-.621.215-.986 0-.391-.072-.752-.215-1.084a1.75 1.75 0 0 0-.654-.801c-.3-.208-.69-.312-1.172-.312h-2.246V159H57.12v-14.219h5.674c1.14 0 2.12.209 2.94.625.826.417 1.461.99 1.904 1.719.442.723.664 1.549.664 2.48 0 .918-.222 1.719-.664 2.403-.443.683-1.078 1.217-1.905 1.601-.82.378-1.8.567-2.94.567Zm12.568 2.168v-4.356c0-.299-.042-.556-.127-.771a1.015 1.015 0 0 0-.4-.498c-.182-.124-.427-.186-.733-.186a1.46 1.46 0 0 0-.634.127.876.876 0 0 0-.4.381c-.092.169-.137.384-.137.645H69.64c0-.489.107-.941.322-1.358.221-.423.534-.791.937-1.103.41-.313.899-.554 1.465-.723a6.503 6.503 0 0 1 1.914-.264c.84 0 1.589.14 2.246.42.664.28 1.188.7 1.573 1.26.384.553.576 1.25.576 2.09v4.326c0 .69.039 1.214.117 1.572.078.352.189.661.332.928V159h-3.3a4.463 4.463 0 0 1-.352-1.191 9.834 9.834 0 0 1-.108-1.465Zm.4-3.799.02 1.758h-1.455c-.306 0-.566.042-.781.127a1.314 1.314 0 0 0-.508.351 1.385 1.385 0 0 0-.273.489 2.083 2.083 0 0 0-.079.576c0 .195.046.371.137.527.098.15.228.267.39.352.164.084.346.127.548.127.364 0 .674-.069.927-.206a1.67 1.67 0 0 0 .596-.517c.137-.202.205-.391.205-.567l.723 1.348c-.13.261-.28.524-.45.791a3.456 3.456 0 0 1-.615.742c-.24.222-.537.404-.888.547-.352.137-.778.205-1.28.205a4.04 4.04 0 0 1-1.796-.4 3.33 3.33 0 0 1-1.3-1.113 2.898 2.898 0 0 1-.487-1.661c0-.546.097-1.035.292-1.464.202-.43.505-.795.909-1.094.403-.3.918-.527 1.543-.684.625-.156 1.36-.234 2.207-.234h1.416Zm7.823 5.215 2.734-9.326h3.536l-4.249 12.138a7.443 7.443 0 0 1-.36.86 3.58 3.58 0 0 1-.616.888c-.26.28-.596.508-1.006.684-.404.176-.905.264-1.504.264a3.68 3.68 0 0 1-.703-.049 13.383 13.383 0 0 1-.664-.147v-2.353h.43c.351 0 .631-.036.84-.108.214-.071.377-.175.488-.312.117-.137.208-.303.273-.498l.8-2.041Zm-.693-9.326 2.08 7.392.361 3.486h-2.207l-3.76-10.878h3.526Zm11.142 2.236V159h-3.29v-10.566h3.085l.205 2.236Zm-.4 2.685-.752.02c0-.742.088-1.426.264-2.051a4.935 4.935 0 0 1 .78-1.631c.346-.462.769-.82 1.27-1.074.508-.254 1.094-.381 1.758-.381.462 0 .882.072 1.26.215.377.137.703.355.976.654.274.293.482.678.625 1.153.15.469.225 1.032.225 1.689V159H96.75v-6.631c0-.449-.052-.788-.156-1.015-.098-.228-.241-.381-.43-.459a1.799 1.799 0 0 0-.693-.118 1.52 1.52 0 0 0-.772.196 1.79 1.79 0 0 0-.586.547 2.634 2.634 0 0 0-.361.81 4.22 4.22 0 0 0-.117 1.025Zm6.035 0-.918.02c0-.742.081-1.426.244-2.051.17-.625.42-1.168.752-1.631.339-.462.759-.82 1.26-1.074.501-.254 1.084-.381 1.748-.381.482 0 .924.072 1.328.215.404.143.752.374 1.045.693.293.319.521.743.683 1.27.163.521.245 1.165.245 1.934V159h-3.301v-6.65c0-.437-.052-.765-.156-.987-.098-.228-.241-.381-.43-.459a1.648 1.648 0 0 0-.674-.127c-.312 0-.583.065-.81.196-.228.13-.42.312-.577.547-.15.227-.26.498-.332.81a4.591 4.591 0 0 0-.107 1.025Zm13.389 5.84c-.86 0-1.628-.133-2.305-.4a5.033 5.033 0 0 1-1.719-1.123 4.976 4.976 0 0 1-1.064-1.641 5.358 5.358 0 0 1-.362-1.963v-.371c0-.774.108-1.491.323-2.148a4.982 4.982 0 0 1 .957-1.738 4.274 4.274 0 0 1 1.591-1.153c.638-.28 1.381-.42 2.227-.42.749 0 1.419.121 2.012.362.592.24 1.093.586 1.504 1.035.416.449.732.993.947 1.631.221.638.332 1.354.332 2.148v1.338h-8.633v-2.061h5.42v-.253c.007-.352-.055-.652-.185-.899a1.28 1.28 0 0 0-.547-.566c-.241-.131-.534-.196-.879-.196-.358 0-.655.078-.889.235a1.588 1.588 0 0 0-.537.644 3.364 3.364 0 0 0-.264.928 7.616 7.616 0 0 0-.078 1.113v.371c0 .391.052.746.156 1.065.111.319.267.592.469.82.208.221.456.394.742.518.293.123.625.185.996.185.45 0 .892-.084 1.329-.254.436-.169.81-.449 1.123-.84l1.494 1.778c-.215.306-.521.602-.918.889-.391.286-.86.52-1.406.703a6.008 6.008 0 0 1-1.836.263Zm9.013-8.506V159h-3.291v-10.566h3.086l.205 2.255Zm-.39 2.666-.772.02c0-.807.098-1.527.293-2.158.195-.638.472-1.179.83-1.621a3.535 3.535 0 0 1 1.279-1.006 3.888 3.888 0 0 1 1.67-.352c.489 0 .935.072 1.338.215.41.143.762.374 1.055.693.299.319.527.743.684 1.27.162.521.244 1.165.244 1.934V159h-3.311v-6.66c0-.423-.058-.746-.176-.967a.938.938 0 0 0-.507-.469 2.298 2.298 0 0 0-.811-.127c-.338 0-.625.065-.859.196a1.51 1.51 0 0 0-.567.547 2.601 2.601 0 0 0-.302.81 5.538 5.538 0 0 0-.088 1.025Zm14.013-4.921v2.285h-6.367v-2.285h6.367Zm-5.029-2.627h3.291v9.746c0 .28.033.498.098.654.065.15.175.257.332.322.162.059.377.088.644.088.189 0 .345-.003.469-.01a5.46 5.46 0 0 0 .352-.048v2.353c-.28.091-.573.16-.879.205a5.835 5.835 0 0 1-.977.078c-.703 0-1.305-.11-1.807-.332a2.35 2.35 0 0 1-1.132-1.045c-.261-.475-.391-1.093-.391-1.855v-10.156Zm17.959 2.627h2.988v10.156c0 .976-.224 1.803-.674 2.48-.449.684-1.077 1.201-1.884 1.553-.801.358-1.739.537-2.813.537-.475 0-.96-.062-1.455-.185a5.567 5.567 0 0 1-1.387-.528 3.779 3.779 0 0 1-1.084-.869l1.377-1.933c.267.299.603.553 1.006.761.404.215.879.323 1.426.323.475 0 .872-.085 1.191-.254a1.71 1.71 0 0 0 .743-.743c.169-.319.253-.706.253-1.162v-7.636l.313-2.5Zm-7.021 5.41v-.205c0-.801.097-1.53.292-2.188.202-.664.489-1.234.86-1.709a3.869 3.869 0 0 1 1.367-1.113c.534-.261 1.136-.391 1.807-.391.722 0 1.315.14 1.777.42.469.274.843.658 1.123 1.153.287.494.508 1.074.664 1.738.163.657.3 1.367.41 2.129v.244a14.31 14.31 0 0 1-.459 2.031 6.791 6.791 0 0 1-.742 1.68c-.306.488-.69.872-1.152 1.152-.456.274-1.003.41-1.641.41-.664 0-1.263-.133-1.797-.4a4.007 4.007 0 0 1-1.357-1.123 5.36 5.36 0 0 1-.86-1.699 7.394 7.394 0 0 1-.292-2.129Zm3.291-.205v.205c0 .397.035.765.107 1.103.078.339.195.638.352.899.156.254.348.452.576.595.234.144.508.215.82.215.475 0 .859-.101 1.152-.302.293-.202.505-.489.635-.86s.186-.807.166-1.308v-.772a4.637 4.637 0 0 0-.088-1.133 2.228 2.228 0 0 0-.342-.83 1.378 1.378 0 0 0-.605-.498c-.247-.117-.547-.176-.898-.176-.306 0-.577.072-.811.215a1.74 1.74 0 0 0-.586.606 3.098 3.098 0 0 0-.361.908 5.14 5.14 0 0 0-.117 1.133Zm8.203.185v-.205c0-.775.11-1.487.332-2.139a4.877 4.877 0 0 1 .976-1.709c.43-.481.961-.856 1.592-1.123.632-.273 1.361-.41 2.188-.41.833 0 1.565.137 2.197.41a4.372 4.372 0 0 1 1.601 1.123c.43.482.756 1.052.977 1.709.221.652.332 1.364.332 2.139v.205c0 .768-.111 1.481-.332 2.139a4.972 4.972 0 0 1-.977 1.709 4.38 4.38 0 0 1-1.591 1.123c-.632.267-1.361.4-2.188.4-.827 0-1.559-.133-2.197-.4a4.372 4.372 0 0 1-1.602-1.123 4.986 4.986 0 0 1-.976-1.709 6.651 6.651 0 0 1-.332-2.139Zm3.291-.205v.205c0 .397.029.768.088 1.114.058.345.156.647.293.908.136.254.322.452.556.595.235.144.528.215.879.215.345 0 .632-.071.859-.215a1.53 1.53 0 0 0 .557-.595c.137-.261.234-.563.293-.908a6.63 6.63 0 0 0 .088-1.114v-.205a6.32 6.32 0 0 0-.088-1.084 3.037 3.037 0 0 0-.293-.908 1.575 1.575 0 0 0-.557-.625c-.234-.15-.527-.225-.878-.225-.346 0-.635.075-.87.225-.227.15-.41.358-.546.625-.137.26-.235.563-.293.908a6.32 6.32 0 0 0-.088 1.084Zm13.486 5.576c-.859 0-1.628-.133-2.305-.4a5.02 5.02 0 0 1-1.718-1.123 4.979 4.979 0 0 1-1.065-1.641 5.357 5.357 0 0 1-.361-1.963v-.371c0-.774.107-1.491.322-2.148a5.014 5.014 0 0 1 .957-1.738 4.277 4.277 0 0 1 1.592-1.153c.638-.28 1.38-.42 2.226-.42.749 0 1.42.121 2.012.362.593.24 1.094.586 1.504 1.035.417.449.732.993.947 1.631.222.638.332 1.354.332 2.148v1.338h-8.632v-2.061h5.419v-.253c.007-.352-.055-.652-.185-.899a1.28 1.28 0 0 0-.547-.566c-.241-.131-.534-.196-.879-.196-.358 0-.654.078-.889.235a1.603 1.603 0 0 0-.537.644 3.399 3.399 0 0 0-.263.928 7.616 7.616 0 0 0-.078 1.113v.371c0 .391.052.746.156 1.065a2.4 2.4 0 0 0 .469.82c.208.221.455.394.742.518.293.123.625.185.996.185.449 0 .892-.084 1.328-.254a2.647 2.647 0 0 0 1.123-.84l1.494 1.778c-.215.306-.521.602-.918.889-.39.286-.859.52-1.406.703a6.008 6.008 0 0 1-1.836.263Zm11.318-3.164a.657.657 0 0 0-.185-.469c-.117-.136-.326-.26-.625-.371-.3-.117-.72-.234-1.26-.351a9 9 0 0 1-1.455-.44 5.01 5.01 0 0 1-1.182-.664 2.933 2.933 0 0 1-.8-.927 2.6 2.6 0 0 1-.284-1.231c0-.449.095-.872.284-1.269.195-.404.478-.759.849-1.065a4.164 4.164 0 0 1 1.377-.732c.54-.183 1.156-.274 1.846-.274.95 0 1.771.147 2.461.44.69.286 1.22.69 1.592 1.211.377.514.566 1.11.566 1.787h-3.291c0-.267-.046-.495-.137-.684a.865.865 0 0 0-.42-.43c-.195-.104-.455-.156-.781-.156-.228 0-.436.043-.625.127a1.12 1.12 0 0 0-.439.352.86.86 0 0 0-.166.527c0 .143.032.274.097.391.072.11.179.215.323.312.143.091.325.176.546.254.222.072.489.137.801.195.71.131 1.374.316 1.992.557.619.241 1.12.583 1.504 1.025.391.443.586 1.039.586 1.788 0 .468-.107.901-.322 1.298a3.235 3.235 0 0 1-.928 1.036c-.403.293-.888.52-1.455.683-.566.163-1.204.244-1.914.244-1.009 0-1.862-.179-2.559-.537-.696-.364-1.224-.82-1.582-1.367-.351-.553-.527-1.113-.527-1.68h3.066c.014.326.092.593.235.801.15.208.348.361.596.459.247.098.533.147.859.147.299 0 .547-.043.742-.127.202-.085.355-.199.459-.342a.885.885 0 0 0 .156-.518ZM83.82 171.434v2.285h-6.367v-2.285h6.367Zm-5.029-2.627h3.291v9.746c0 .28.033.498.098.654.065.15.175.257.332.322.162.059.377.088.644.088.19 0 .345-.003.469-.01.124-.013.24-.029.352-.048v2.353c-.28.091-.573.16-.88.205a5.83 5.83 0 0 1-.976.078c-.703 0-1.305-.11-1.806-.332a2.351 2.351 0 0 1-1.133-1.045c-.26-.475-.391-1.093-.391-1.855v-10.156Zm5.635 8.017v-.205c0-.775.11-1.487.332-2.139a4.873 4.873 0 0 1 .976-1.709c.43-.481.96-.856 1.592-1.123.632-.273 1.36-.41 2.188-.41.833 0 1.565.137 2.197.41a4.38 4.38 0 0 1 1.602 1.123c.43.482.755 1.052.976 1.709.221.652.332 1.364.332 2.139v.205a6.67 6.67 0 0 1-.332 2.139 4.983 4.983 0 0 1-.977 1.709c-.43.482-.96.856-1.591 1.123-.632.267-1.361.4-2.188.4-.827 0-1.559-.133-2.197-.4a4.368 4.368 0 0 1-1.602-1.123 4.983 4.983 0 0 1-.976-1.709 6.67 6.67 0 0 1-.332-2.139Zm3.29-.205v.205c0 .397.03.768.089 1.114.058.345.156.647.293.908.136.254.322.452.556.595.235.144.528.215.88.215.344 0 .63-.071.859-.215a1.53 1.53 0 0 0 .556-.595c.137-.261.235-.563.293-.908.059-.346.088-.717.088-1.114v-.205c0-.384-.03-.745-.088-1.084a3.034 3.034 0 0 0-.293-.908 1.576 1.576 0 0 0-.556-.625c-.235-.15-.528-.225-.88-.225-.344 0-.634.075-.869.225-.227.15-.41.358-.546.625-.137.26-.235.563-.293.908-.059.339-.088.7-.088 1.084Zm18.917-5.185v2.285h-6.367v-2.285h6.367Zm-5.029-2.627h3.291v9.746c0 .28.032.498.097.654.065.15.176.257.332.322.163.059.378.088.645.088.189 0 .345-.003.469-.01.123-.013.24-.029.351-.048v2.353c-.28.091-.573.16-.879.205a5.822 5.822 0 0 1-.976.078c-.704 0-1.306-.11-1.807-.332a2.353 2.353 0 0 1-1.133-1.045c-.26-.475-.39-1.093-.39-1.855v-10.156Zm9.56-1.807v15h-3.291v-15h3.291Zm-.391 9.355-.771.02c0-.742.091-1.426.273-2.051a5.21 5.21 0 0 1 .782-1.631c.338-.462.745-.82 1.22-1.074a3.306 3.306 0 0 1 1.582-.381c.521 0 .996.075 1.426.225.436.15.811.391 1.123.723.319.332.563.765.733 1.298.175.534.263 1.185.263 1.954V182h-3.31v-6.582c0-.43-.062-.762-.186-.996a.967.967 0 0 0-.508-.498 1.994 1.994 0 0 0-.81-.147c-.384 0-.697.065-.938.196-.241.13-.426.312-.556.547a2.396 2.396 0 0 0-.254.81 7.063 7.063 0 0 0-.069 1.025Zm13.575 5.84c-.86 0-1.628-.133-2.305-.4a5.033 5.033 0 0 1-1.719-1.123 4.976 4.976 0 0 1-1.064-1.641 5.358 5.358 0 0 1-.362-1.963v-.371c0-.774.108-1.491.323-2.148a5.014 5.014 0 0 1 .957-1.738 4.277 4.277 0 0 1 1.592-1.153c.638-.28 1.38-.42 2.226-.42.749 0 1.419.121 2.012.362.592.24 1.094.586 1.504 1.035.416.449.732.993.947 1.631.221.638.332 1.354.332 2.148v1.338h-8.633v-2.061h5.42v-.253c.007-.352-.055-.652-.185-.899a1.28 1.28 0 0 0-.547-.566c-.241-.131-.534-.196-.879-.196-.358 0-.655.078-.889.235a1.588 1.588 0 0 0-.537.644 3.364 3.364 0 0 0-.264.928 7.616 7.616 0 0 0-.078 1.113v.371c0 .391.052.746.156 1.065.111.319.267.592.469.82.209.221.456.394.742.518.293.123.625.185.996.185.45 0 .892-.084 1.329-.254.436-.169.81-.449 1.123-.84l1.494 1.778c-.215.306-.521.602-.918.889-.391.286-.86.52-1.406.703a6.008 6.008 0 0 1-1.836.263Zm21.562-2.832V182h-10.293v-2.637h10.293Zm-.068-9.824L137.316 182h-2.48v-1.807l8.623-12.412h2.383v1.758Zm-1.104-1.758v2.647h-9.951v-2.647h9.951Zm1.953 9.043v-.205c0-.775.111-1.487.332-2.139a4.879 4.879 0 0 1 .977-1.709c.43-.481.96-.856 1.592-1.123.631-.273 1.36-.41 2.187-.41.834 0 1.566.137 2.198.41a4.38 4.38 0 0 1 1.601 1.123c.43.482.755 1.052.977 1.709.221.652.332 1.364.332 2.139v.205c0 .768-.111 1.481-.332 2.139a4.988 4.988 0 0 1-.977 1.709c-.43.482-.96.856-1.592 1.123-.631.267-1.36.4-2.187.4-.827 0-1.559-.133-2.197-.4a4.372 4.372 0 0 1-1.602-1.123 4.988 4.988 0 0 1-.977-1.709 6.679 6.679 0 0 1-.332-2.139Zm3.291-.205v.205c0 .397.03.768.088 1.114.059.345.157.647.293.908.137.254.323.452.557.595.234.144.527.215.879.215.345 0 .631-.071.859-.215a1.53 1.53 0 0 0 .557-.595c.137-.261.234-.563.293-.908.058-.346.088-.717.088-1.114v-.205c0-.384-.03-.745-.088-1.084a3.037 3.037 0 0 0-.293-.908 1.575 1.575 0 0 0-.557-.625c-.234-.15-.527-.225-.879-.225-.345 0-.634.075-.869.225-.228.15-.41.358-.547.625-.136.26-.234.563-.293.908-.058.339-.088.7-.088 1.084Zm7.959.205v-.205c0-.775.111-1.487.332-2.139a4.879 4.879 0 0 1 .977-1.709c.43-.481.96-.856 1.592-1.123.631-.273 1.36-.41 2.187-.41.834 0 1.566.137 2.198.41a4.38 4.38 0 0 1 1.601 1.123c.43.482.755 1.052.977 1.709.221.652.332 1.364.332 2.139v.205c0 .768-.111 1.481-.332 2.139a4.988 4.988 0 0 1-.977 1.709c-.43.482-.96.856-1.592 1.123-.631.267-1.36.4-2.187.4-.827 0-1.559-.133-2.197-.4a4.372 4.372 0 0 1-1.602-1.123 4.988 4.988 0 0 1-.977-1.709 6.679 6.679 0 0 1-.332-2.139Zm3.291-.205v.205c0 .397.03.768.088 1.114.059.345.157.647.293.908.137.254.323.452.557.595.234.144.527.215.879.215.345 0 .631-.071.859-.215a1.53 1.53 0 0 0 .557-.595c.137-.261.234-.563.293-.908.058-.346.088-.717.088-1.114v-.205c0-.384-.03-.745-.088-1.084a3.037 3.037 0 0 0-.293-.908 1.575 1.575 0 0 0-.557-.625c-.234-.15-.527-.225-.879-.225-.345 0-.634.075-.869.225-.228.15-.41.358-.547.625-.136.26-.234.563-.293.908-.058.339-.088.7-.088 1.084Z" fill="#4F4F4F"/><g clip-path="url(#b)"><path d="M101.203 101.203a1.172 1.172 0 1 0 0 2.345 1.172 1.172 0 0 0 0-2.345Z" fill="url(#c)"/><path d="M150.656 117.143V73.544A5.881 5.881 0 0 0 153 68.86c0-3.23-2.629-5.859-5.859-5.859a5.866 5.866 0 0 0-5.86 5.86c0 .952.237 1.875.664 2.697C136.144 68.96 129.669 67.6 123 67.6c-6.669 0-13.144 1.36-18.945 3.956a5.851 5.851 0 0 0 .664-2.698c0-3.23-2.629-5.859-5.86-5.859A5.866 5.866 0 0 0 93 68.86c0 1.849.884 3.586 2.344 4.684v43.599A5.828 5.828 0 0 0 93 121.828c0 .647.525 1.16 1.172 1.16h9.366l.009.001c.506 0 .961-.319 1.116-.804l.001-.002.003-.011 11.204-35.024a33.07 33.07 0 0 1 14.257 0l11.204 35.024a.049.049 0 0 1 .004.011l.001.002c.152.477.602.804 1.116.804l.008-.001h9.367c.647 0 1.172-.513 1.172-1.16 0-1.844-.85-3.561-2.344-4.685Zm-51.797-51.8a3.52 3.52 0 0 1 3.516 3.516 3.53 3.53 0 0 1-1.758 3.046 3.518 3.518 0 0 1-5.273-3.046 3.52 3.52 0 0 1 3.515-3.515Zm-3.316 55.313a3.52 3.52 0 0 1 3.316-2.344c1.542 0 2.84.993 3.317 2.344h-6.633Zm7.929-2.439a5.758 5.758 0 0 0-1.097-1.074v-10.081a1.172 1.172 0 0 0-2.344 0v9.026a5.89 5.89 0 0 0-2.344 0V74.6a5.865 5.865 0 0 0 2.344 0v23.088a1.172 1.172 0 0 0 2.344 0v-3.859c3.106-2.664 6.801-4.7 10.805-5.96l-9.708 30.348Zm40.153-1.074c-.437.329-.779.67-1.097 1.074l-9.709-30.349c4.005 1.262 7.7 3.297 10.806 5.961v23.314Zm0-34.755a39.77 39.77 0 0 0-3.02-1.572 1.172 1.172 0 1 0-.991 2.124 37.532 37.532 0 0 1 4.011 2.181v5.7c-12.007-9.079-29.29-9.043-41.25 0v-5.7a37.532 37.532 0 0 1 4.011-2.181 1.171 1.171 0 1 0-.991-2.124 39.807 39.807 0 0 0-3.02 1.572v-7.396c12.428-6.68 28.822-6.68 41.25 0v7.396Zm3.516-17.044a3.52 3.52 0 0 1 3.515 3.515 3.531 3.531 0 0 1-1.757 3.046 3.523 3.523 0 0 1-3.515 0 3.53 3.53 0 0 1-1.759-3.046 3.52 3.52 0 0 1 3.516-3.515Zm1.171 9.256v41.488a5.882 5.882 0 0 0-2.343 0V74.6a5.862 5.862 0 0 0 2.343 0Zm-4.488 46.056a3.52 3.52 0 0 1 3.317-2.344c1.541 0 2.839.993 3.316 2.344h-6.633Z" fill="url(#d)"/><path d="M115.969 79.406h-1.859l2.687-2.687a1.17 1.17 0 0 0-.828-2h-4.688a1.172 1.172 0 0 0 0 2.344h1.859l-2.687 2.686a1.17 1.17 0 0 0 .828 2h4.688a1.172 1.172 0 0 0 0-2.343Z" fill="url(#e)"/><path d="M119.484 78.234A3.52 3.52 0 0 0 123 81.75a3.52 3.52 0 0 0 3.516-3.516A3.52 3.52 0 0 0 123 74.72a3.52 3.52 0 0 0-3.516 3.515ZM123 77.063c.646 0 1.172.525 1.172 1.171 0 .647-.526 1.172-1.172 1.172a1.173 1.173 0 0 1-1.172-1.172c0-.646.526-1.171 1.172-1.171Z" fill="url(#f)"/><path d="M132.375 81.75a3.52 3.52 0 0 0 3.516-3.516 3.52 3.52 0 0 0-3.516-3.515 3.52 3.52 0 0 0-3.516 3.515 3.52 3.52 0 0 0 3.516 3.516Zm0-4.688c.646 0 1.172.526 1.172 1.172 0 .647-.526 1.172-1.172 1.172a1.173 1.173 0 0 1-1.172-1.172c0-.646.526-1.171 1.172-1.171Z" fill="url(#g)"/><path d="M123 91.828c-.647 0-1.172.525-1.172 1.172v4.688a1.172 1.172 0 0 0 2.344 0V93c0-.647-.525-1.172-1.172-1.172Z" fill="url(#h)"/><path d="M123 103.547c-.647 0-1.172.525-1.172 1.172v4.687a1.172 1.172 0 0 0 2.344 0v-4.687c0-.647-.525-1.172-1.172-1.172Z" fill="url(#i)"/><path d="M123 115.969c-.647 0-1.172.524-1.172 1.172v4.687a1.172 1.172 0 0 0 2.344 0v-4.687c0-.648-.525-1.172-1.172-1.172Z" fill="url(#j)"/></g><defs><linearGradient id="a" x1="-45.746" y1="0" x2="290.544" y2="102.084" gradientUnits="userSpaceOnUse"><stop stop-color="#4BD8B5"/><stop offset="1" stop-color="#49D6DF"/></linearGradient><linearGradient id="c" x1="99.594" y1="101.203" x2="102.811" y2="102.18" gradientUnits="userSpaceOnUse"><stop stop-color="#4BD8B5"/><stop offset="1" stop-color="#49D6DF"/></linearGradient><linearGradient id="d" x1="81.797" y1="63" x2="164.151" y2="88.004" gradientUnits="userSpaceOnUse"><stop stop-color="#4BD8B5"/><stop offset="1" stop-color="#49D6DF"/></linearGradient><linearGradient id="e" x1="108.796" y1="74.719" x2="118.448" y2="77.648" gradientUnits="userSpaceOnUse"><stop stop-color="#4BD8B5"/><stop offset="1" stop-color="#49D6DF"/></linearGradient><linearGradient id="f" x1="118.172" y1="74.719" x2="127.823" y2="77.648" gradientUnits="userSpaceOnUse"><stop stop-color="#4BD8B5"/><stop offset="1" stop-color="#49D6DF"/></linearGradient><linearGradient id="g" x1="127.547" y1="74.719" x2="137.198" y2="77.648" gradientUnits="userSpaceOnUse"><stop stop-color="#4BD8B5"/><stop offset="1" stop-color="#49D6DF"/></linearGradient><linearGradient id="h" x1="121.391" y1="91.828" x2="124.868" y2="92.18" gradientUnits="userSpaceOnUse"><stop stop-color="#4BD8B5"/><stop offset="1" stop-color="#49D6DF"/></linearGradient><linearGradient id="i" x1="121.391" y1="103.547" x2="124.868" y2="103.899" gradientUnits="userSpaceOnUse"><stop stop-color="#4BD8B5"/><stop offset="1" stop-color="#49D6DF"/></linearGradient><linearGradient id="j" x1="121.391" y1="115.969" x2="124.868" y2="116.321" gradientUnits="userSpaceOnUse"><stop stop-color="#4BD8B5"/><stop offset="1" stop-color="#49D6DF"/></linearGradient><clipPath id="b"><path fill="#fff" transform="translate(93 63)" d="M0 0h60v60H0z"/></clipPath></defs></svg>